<svg width="14" height="16" viewBox="0 0 14 16" fill="none" xmlns="http://www.w3.org/2000/svg">
<path d="M13.25 6.71875C13.5625 6.90625 13.7812 7.1875 13.9062 7.5C14.0312 7.84375 14.0312 8.1875 13.9062 8.5C13.7812 8.84375 13.5625 9.09375 13.25 9.28125L2.25 15.7812C1.9375 15.9688 1.59375 16.0312 1.25 15.9688C0.875 15.9062 0.59375 15.75 0.34375 15.4688C0.09375 15.2188 0 14.875 0 14.5V1.5C0 1.09375 0.125 0.75 0.375 0.5C0.625 0.25 0.90625 0.09375 1.28125 0.03125C1.625 -0.03125 1.9375 0.03125 2.25 0.21875L13.25 6.71875ZM1.5 14.1562C1.5 14.25 1.53125 14.3125 1.59375 14.3438C1.65625 14.375 1.71875 14.375 1.78125 14.3438L12.2188 8.15625C12.2812 8.125 12.3125 8.0625 12.3125 8C12.3125 7.9375 12.2812 7.90625 12.2188 7.84375L1.78125 1.65625C1.71875 1.65625 1.65625 1.65625 1.59375 1.6875C1.53125 1.71875 1.5 1.75 1.5 1.8125V14.1562Z" fill="white"/>
</svg>
